HIERARCHY
ROOT Hips
{
	OFFSET 0.000000 0.000000 0.000000
	CHANNELS 6 Xposition Yposition Zposition Zrotation Yrotation Xrotation 
	JOINT LHipJoint
	{
		OFFSET 0.000000 0.000000 0.000000
		CHANNELS 3 Zrotation Yrotation Xrotation
		JOINT LeftUpLeg
		{
			OFFSET 1.363060 -1.794630 0.839290
			CHANNELS 3 Zrotation Yrotation Xrotation
			JOINT LeftLeg
			{
				OFFSET 2.448110 -6.726130 0.000000
				CHANNELS 3 Zrotation Yrotation Xrotation
				JOINT LeftFoot
				{
					OFFSET 2.562200 -7.039590 0.000000
					CHANNELS 3 Zrotation Yrotation Xrotation
					JOINT LeftToeBase
					{
						OFFSET 0.157640 -0.433110 2.322550
						CHANNELS 3 Zrotation Yrotation Xrotation
						End Site
						{
							OFFSET 0.000000 0.000000 0.000000
						}
					}
				}
			}
		}
	}
	JOINT RHipJoint
	{
		OFFSET 0.000000 0.000000 0.000000
		CHANNELS 3 Zrotation Yrotation Xrotation
		JOINT RightUpLeg
		{
			OFFSET -1.305520 -1.794630 0.839290
			CHANNELS 3 Zrotation Yrotation Xrotation
			JOINT RightLeg
			{
				OFFSET -2.542530 -6.985550 0.000000
				CHANNELS 3 Zrotation Yrotation Xrotation
				JOINT RightFoot
				{
					OFFSET -2.568260 -7.056230 0.000000
					CHANNELS 3 Zrotation Yrotation Xrotation
					JOINT RightToeBase
					{
						OFFSET -0.164730 -0.452590 2.363150
						CHANNELS 3 Zrotation Yrotation Xrotation
						End Site
						{
							OFFSET 0.000000 0.000000 0.000000
						}
					}
				}
			}
		}
	}
	JOINT LowerBack
	{
		OFFSET 0.000000 0.000000 0.000000
		CHANNELS 3 Zrotation Yrotation Xrotation
		JOINT Spine
		{
			OFFSET 0.028270 2.035590 -0.193380
			CHANNELS 3 Zrotation Yrotation Xrotation
			JOINT Spine1
			{
				OFFSET 0.056720 2.048850 -0.042750
				CHANNELS 3 Zrotation Yrotation Xrotation
				JOINT Neck
				{
					OFFSET 0.000000 0.000000 0.000000
					CHANNELS 3 Zrotation Yrotation Xrotation
					JOINT Neck1
					{
						OFFSET -0.054170 1.746240 0.172020
						CHANNELS 3 Zrotation Yrotation Xrotation
						JOINT Head
						{
							OFFSET 0.104070 1.761360 -0.123970
							CHANNELS 3 Zrotation Yrotation Xrotation
							End Site
							{
								OFFSET 0.000000 0.000000 0.000000
							}
						}
					}
				}
				JOINT LeftShoulder
				{
					OFFSET 0.000000 0.000000 0.000000
					CHANNELS 3 Zrotation Yrotation Xrotation
					JOINT LeftArm
					{
						OFFSET 3.362410 1.200890 -0.311210
						CHANNELS 3 Zrotation Yrotation Xrotation
						JOINT LeftForeArm
						{
							OFFSET 4.983000 -0.000000 -0.000000
							CHANNELS 3 Zrotation Yrotation Xrotation
							JOINT LeftHand
							{
								OFFSET 3.483560 -0.000000 -0.000000
								CHANNELS 3 Zrotation Yrotation Xrotation
								JOINT LeftFingerBase
								{
									OFFSET 0.000000 0.000000 0.000000
									CHANNELS 3 Zrotation Yrotation Xrotation
									JOINT LeftHandIndex1
									{
										OFFSET 0.715260 -0.000000 -0.000000
										CHANNELS 3 Zrotation Yrotation Xrotation
										End Site
										{
											OFFSET 0.000000 0.000000 0.000000
										}
									}
								}
								JOINT LThumb
								{
									OFFSET 0.000000 0.000000 0.000000
									CHANNELS 3 Zrotation Yrotation Xrotation
									End Site
									{
										OFFSET 0.000000 0.000000 0.000000
									}
								}
							}
						}
					}
				}
				JOINT RightShoulder
				{
					OFFSET 0.000000 0.000000 0.000000
					CHANNELS 3 Zrotation Yrotation Xrotation
					JOINT RightArm
					{
						OFFSET -3.136600 1.374050 -0.404650
						CHANNELS 3 Zrotation Yrotation Xrotation
						JOINT RightForeArm
						{
							OFFSET -5.241900 -0.000000 -0.000000
							CHANNELS 3 Zrotation Yrotation Xrotation
							JOINT RightHand
							{
								OFFSET -3.444170 -0.000000 -0.000000
								CHANNELS 3 Zrotation Yrotation Xrotation
								JOINT RightFingerBase
								{
									OFFSET 0.000000 0.000000 0.000000
									CHANNELS 3 Zrotation Yrotation Xrotation
									JOINT RightHandIndex1
									{
										OFFSET -0.622530 -0.000000 -0.000000
										CHANNELS 3 Zrotation Yrotation Xrotation
										End Site
										{
											OFFSET 0.000000 0.000000 0.000000
										}
									}
								}
								JOINT RThumb
								{
									OFFSET 0.000000 0.000000 0.000000
									CHANNELS 3 Zrotation Yrotation Xrotation
									End Site
									{
										OFFSET 0.000000 0.000000 0.000000
									}
								}
							}
						}
					}
				}
			}
		}
	}
}
MOTION
Frames: 5
Frame Time: 0.008333
1.722842 18.019962 0.476969 6.048045 83.179243 21.347673 -3.679139 0.170126 1.486829 -16.580371 4.283698 -20.007118 1.011475 5.123260 15.101971 0.110046 1.617851 -0.647603 2.020600 -8.908800 -25.510500 -3.136108 -3.080346 0.117026 19.785478 0.891031 -11.610133 -0.872334 0.532379 1.145474 -0.764735 10.120492 9.250734 -0.153000 2.520500 -6.946400 0.505221 -1.034975 -11.950639 -6.478241 -2.828815 -3.818221 -0.652338 -0.923519 4.271188 -13.869316 -21.699157 -6.615711 22.433445 -26.666225 -4.311688 3.604300 -13.536800 4.818000 -0.880505 -5.860027 2.187080 -46.213839 38.703944 65.531424 114.822296 -53.372276 -81.715867 -1.227045 -0.274857 179.440683 20.570099 -3.825495 -1.451100 -7.125000 0.000000 0.000000 -5.503400 25.591000 2.597700 4.352972 7.272609 0.074746 10.561855 15.599125 -74.008163 -57.634157 57.869952 -21.533297 0.610610 -0.220696 164.758320 -11.179573 -11.063701 2.140700 7.125000 0.000000 0.000000 14.605200 -41.191600 1.405500 
1.722842 18.019768 0.481245 6.363299 83.099620 21.675040 -3.678653 0.165768 1.483786 -16.623960 4.255786 -19.996974 1.013089 5.124565 15.111778 0.103443 1.646012 -0.732582 2.014500 -8.896200 -25.471100 -3.137295 -3.082897 0.120355 19.734181 0.966408 -11.614444 -0.873440 0.530352 1.144685 -0.763206 10.074381 9.378850 -0.171100 2.665000 -7.347500 0.415235 -1.028732 -11.974086 -6.543034 -2.815534 -3.799986 -0.607212 -0.919201 4.283744 -13.889073 -21.711183 -6.701418 22.460369 -26.685932 -4.156173 3.595500 -13.523200 4.871500 -0.873926 -5.850884 2.189647 -46.190473 38.677451 65.583258 114.869458 -53.367806 -81.755779 -1.203928 -0.270795 179.529093 20.342065 -3.884653 -1.453900 -7.125000 0.000000 0.000000 -5.655700 25.537000 2.677400 4.359851 7.280967 0.077319 10.546326 15.611036 -74.058794 -57.605353 57.861299 -21.514375 0.617800 -0.213140 164.733801 -11.306383 -11.032311 2.158300 7.125000 0.000000 0.000000 14.494300 -41.167100 1.403300 
1.723619 18.019865 0.484744 6.288344 83.009224 21.617114 -3.676606 0.165335 1.476864 -16.619109 4.186858 -19.960554 1.011733 5.123364 15.103213 0.064507 1.808000 -0.765666 1.983500 -8.831700 -25.270200 -3.138796 -3.079886 0.118255 19.720144 1.068072 -11.628861 -0.875683 0.529165 1.144994 -0.764264 10.092432 9.480199 -0.164200 2.610300 -7.195700 0.327637 -1.012451 -11.968788 -6.531532 -2.785128 -3.840535 -0.549714 -0.904531 4.273295 -13.873636 -21.688081 -6.772795 22.349899 -26.674284 -4.047021 3.564900 -13.503100 4.890100 -0.876798 -5.853828 2.193154 -46.224427 38.677611 65.619578 114.842513 -53.375434 -81.734922 -1.203295 -0.280435 179.533023 20.316754 -3.781964 -1.419700 -7.125000 0.000000 0.000000 -5.677200 25.635800 2.674500 4.361194 7.282147 0.082360 10.509063 15.554394 -74.016413 -57.622299 57.870115 -21.523953 0.622194 -0.202166 164.623672 -11.469083 -11.027206 2.187900 7.125000 0.000000 0.000000 14.356400 -41.168700 1.388700 
1.724785 18.019768 0.488825 6.004134 82.916919 21.325695 -3.675270 0.170593 1.478301 -16.589195 4.165937 -19.917586 1.009422 5.124002 15.094940 0.027683 1.961792 -0.821656 2.004300 -8.875100 -25.405400 -3.137337 -3.073862 0.118118 19.729068 1.156904 -11.596428 -0.876572 0.530006 1.146844 -0.765988 10.141467 9.436411 -0.164300 2.611400 -7.198600 0.295546 -0.982393 -11.974341 -6.562354 -2.745006 -3.818784 -0.530452 -0.883431 4.276341 -13.850722 -21.677884 -6.828882 22.334725 -26.661028 -4.014607 3.556600 -13.490200 4.899300 -0.875166 -5.855730 2.195555 -46.193735 38.616680 65.677160 114.845246 -53.377023 -81.735148 -1.194469 -0.275728 179.615316 20.237626 -3.821980 -1.426700 -7.125000 0.000000 0.000000 -5.728800 25.599000 2.704000 4.363451 7.287839 0.084445 10.508761 15.480701 -73.973681 -57.720524 57.900044 -21.587271 0.621970 -0.190457 164.554245 -11.605715 -11.045772 2.217000 7.125000 0.000000 0.000000 14.242800 -41.188900 1.369900 
1.722647 18.018990 0.495142 5.796235 82.831827 21.109053 -3.671968 0.173960 1.479410 -16.573152 4.231656 -19.941772 1.009617 5.131287 15.109277 0.020289 1.993727 -0.849856 2.018600 -8.904700 -25.497600 -3.135069 -3.068519 0.118389 19.747964 1.238958 -11.561367 -0.876312 0.530559 1.149071 -0.766484 10.157692 9.345497 -0.184700 2.768300 -7.634400 0.231532 -0.966506 -11.961542 -6.586995 -2.719553 -3.802128 -0.491989 -0.870333 4.275875 -13.915164 -21.656132 -6.764798 22.422256 -26.616250 -4.097179 3.594100 -13.479100 4.887700 -0.872887 -5.855931 2.192531 -46.195541 38.627881 65.685476 114.889841 -53.368435 -81.776577 -1.189902 -0.272699 179.666199 20.198816 -3.839672 -1.429300 -7.125000 0.000000 0.000000 -5.753900 25.583500 2.718000 4.368949 7.289358 0.079761 10.443825 15.459856 -73.969733 -57.747251 57.914006 -21.604727 0.625750 -0.198926 164.555030 -11.538759 -10.962074 2.188800 7.125000 0.000000 0.000000 14.282900 -41.109300 1.402700 
